<svg width="339" height="310" viewBox="0 0 339 310" fill="none" xmlns="http://www.w3.org/2000/svg">
<circle cx="167.5" cy="155.5" r="87" stroke="#F0F0F0"/>
<path d="M167.5 31.5C235.429 31.5 290.5 86.7909 290.5 155C290.5 223.209 235.429 278.5 167.5 278.5C99.5709 278.5 44.5 223.209 44.5 155C44.5 86.7909 99.5709 31.5 167.5 31.5Z" stroke="#F0F0F0"/>
<circle cx="167" cy="155" r="154.5" stroke="#F0F0F0"/>
<rect x="242" y="49" width="34" height="34" rx="4" fill="#096DD9"/>
<path d="M253.414 60.8227V62.4409C253.413 63.213 253.118 63.9532 252.594 64.4989C252.07 65.0447 251.36 65.3516 250.619 65.3522C250.537 65.3516 250.456 65.3679 250.381 65.4002C250.305 65.4326 250.237 65.4803 250.179 65.5406C250.121 65.601 250.076 65.6726 250.045 65.7515C250.014 65.8304 249.999 65.9149 250 66C250.003 66.6576 250.198 67.2987 250.56 67.8376C250.922 68.3766 251.432 68.7878 252.024 69.0164C250.911 70.576 250.31 72.4678 250.31 74.4113C250.311 75.0975 250.573 75.7552 251.038 76.2404C251.504 76.7256 252.135 76.9987 252.793 77H265.207C265.865 76.9987 266.496 76.7256 266.962 76.2404C267.427 75.7552 267.689 75.0975 267.69 74.4113C267.692 72.4726 267.091 70.5856 265.976 69.0336C266.569 68.8021 267.081 68.3878 267.442 67.8459C267.804 67.304 267.998 66.6601 268 66C268.001 65.9149 267.986 65.8304 267.955 65.7515C267.924 65.6726 267.879 65.601 267.821 65.5406C267.763 65.4803 267.695 65.4326 267.619 65.4002C267.544 65.3679 267.463 65.3516 267.381 65.3522C266.64 65.3516 265.93 65.0447 265.406 64.4989C264.882 63.9532 264.587 63.213 264.586 62.4409V60.8227C264.586 59.2784 263.997 57.7974 262.95 56.7054C261.902 55.6135 260.481 55 259 55C257.519 55 256.098 55.6135 255.05 56.7054C254.003 57.7974 253.414 59.2784 253.414 60.8227ZM263.296 61.4069C263.166 62.4993 262.658 63.5045 261.867 64.2334C261.075 64.9623 260.056 65.3646 259 65.3646C257.944 65.3646 256.925 64.9623 256.133 64.2334C255.342 63.5045 254.834 62.4993 254.704 61.4069C255.335 61.3239 255.947 61.1313 256.517 60.8373C256.519 61.0091 256.586 61.1731 256.704 61.2932C256.822 61.4133 256.98 61.4797 257.145 61.4778C257.31 61.4758 257.467 61.4057 257.582 61.2829C257.698 61.16 257.761 60.9945 257.76 60.8227V59.9573C258.271 59.4779 258.692 58.9024 259 58.2609C259.308 58.9024 259.729 59.4779 260.24 59.9573V60.8227C260.24 60.9077 260.255 60.9922 260.285 61.0711C260.315 61.1501 260.36 61.222 260.418 61.2829C260.533 61.4057 260.69 61.4758 260.855 61.4778C261.02 61.4797 261.178 61.4133 261.296 61.2932C261.414 61.1731 261.481 61.0091 261.483 60.8373C262.05 61.1385 262.664 61.3314 263.296 61.4069ZM257.462 66.8409C257.968 66.7286 258.483 66.668 259 66.66C259.518 66.6615 260.033 66.7222 260.538 66.8409L259.483 68.2269C259.424 68.3 259.35 68.3588 259.266 68.3991C259.183 68.4394 259.092 68.4602 259 68.4602C258.908 68.4602 258.817 68.4394 258.734 68.3991C258.65 68.3588 258.576 68.3 258.517 68.2269L257.462 66.8409ZM251.55 74.4187C251.548 73.1124 251.862 71.8266 252.463 70.6805C253.064 69.5344 253.934 68.5652 254.99 67.8627C255.373 67.625 255.773 67.4174 256.186 67.2418L257.553 69.0287C257.727 69.2559 257.948 69.4393 258.199 69.5654C258.451 69.6915 258.726 69.7569 259.005 69.7569C259.284 69.7569 259.559 69.6915 259.81 69.5654C260.061 69.4393 260.282 69.2559 260.456 69.0287L261.814 67.2564C262.443 67.5232 263.036 67.8749 263.577 68.3027C264.471 69.0255 265.194 69.9521 265.691 71.0114C266.189 72.0707 266.446 73.2345 266.445 74.4138C266.444 74.7568 266.313 75.0853 266.08 75.3276C265.847 75.5699 265.531 75.7062 265.202 75.7069H264.586V72.4827C264.576 72.3181 264.506 72.1635 264.391 72.0505C264.276 71.9376 264.124 71.8747 263.965 71.8747C263.807 71.8747 263.655 71.9376 263.54 72.0505C263.425 72.1635 263.355 72.3181 263.345 72.4827V75.7191H254.655V72.4827C254.645 72.3181 254.575 72.1635 254.46 72.0505C254.345 71.9376 254.193 71.8747 254.035 71.8747C253.876 71.8747 253.724 71.9376 253.609 72.0505C253.494 72.1635 253.424 72.3181 253.414 72.4827V75.7191H252.793C252.464 75.7185 252.148 75.5821 251.916 75.3398C251.683 75.0975 251.551 74.769 251.55 74.426V74.4187Z" fill="white"/>
<path d="M255.895 72.4704C255.895 72.5557 255.91 72.6402 255.941 72.7191C255.972 72.798 256.018 72.8697 256.076 72.9299C256.134 72.9902 256.202 73.0379 256.278 73.0702C256.354 73.1026 256.435 73.1189 256.517 73.1182H257.76C257.924 73.1182 258.082 73.05 258.199 72.9285C258.315 72.807 258.381 72.6422 258.381 72.4704C258.381 72.2986 258.315 72.1339 258.199 72.0124C258.082 71.8909 257.924 71.8227 257.76 71.8227H256.517C256.435 71.822 256.354 71.8383 256.278 71.8706C256.202 71.903 256.134 71.9507 256.076 72.0109C256.018 72.0712 255.972 72.1429 255.941 72.2218C255.91 72.3007 255.895 72.3852 255.895 72.4704ZM257.274 63.1816C257.477 63.4564 257.737 63.679 258.035 63.8322C258.334 63.9854 258.662 64.0651 258.994 64.0651C259.327 64.0651 259.655 63.9854 259.953 63.8322C260.251 63.679 260.512 63.4564 260.714 63.1816C260.771 63.1168 260.814 63.0407 260.841 62.9579C260.869 62.8751 260.88 62.7873 260.874 62.7C260.868 62.6126 260.844 62.5275 260.806 62.4498C260.767 62.372 260.713 62.3033 260.648 62.2478C260.583 62.1924 260.508 62.1513 260.428 62.127C260.347 62.1028 260.262 62.096 260.179 62.1069C260.095 62.1179 260.015 62.1465 259.943 62.1908C259.87 62.2352 259.807 62.2945 259.757 62.3651C259.669 62.4886 259.553 62.5888 259.421 62.6578C259.288 62.7268 259.142 62.7627 258.994 62.7627C258.846 62.7627 258.7 62.7268 258.567 62.6578C258.435 62.5888 258.32 62.4886 258.231 62.3651C258.18 62.2986 258.117 62.2434 258.045 62.2027C257.973 62.162 257.895 62.1365 257.813 62.1279C257.732 62.1192 257.65 62.1275 257.572 62.1523C257.494 62.1771 257.421 62.2179 257.359 62.2722C257.294 62.3247 257.241 62.3902 257.201 62.4648C257.162 62.5394 257.137 62.6216 257.129 62.7063C257.121 62.7911 257.13 62.8767 257.154 62.9579C257.179 63.0392 257.219 63.1144 257.272 63.1791L257.274 63.1816Z" fill="white"/>
<rect x="80" y="95" width="34" height="34" rx="4" fill="#096DD9"/>
<path d="M87.6227 111.414C87.5428 111.409 87.4627 111.421 87.3874 111.448C87.3121 111.475 87.2431 111.518 87.1848 111.573C87.1264 111.627 87.08 111.694 87.0482 111.767C87.0164 111.841 87 111.92 87 112C87 112.08 87.0164 112.159 87.0482 112.233C87.08 112.306 87.1264 112.373 87.1848 112.427C87.2431 112.482 87.3121 112.525 87.3874 112.552C87.4627 112.579 87.5428 112.591 87.6227 112.586H87.6581C87.8023 114.861 88.7711 117.005 90.383 118.617C91.995 120.229 94.1394 121.198 96.4144 121.342V121.377C96.4095 121.457 96.421 121.537 96.4482 121.613C96.4754 121.688 96.5177 121.757 96.5726 121.815C96.6275 121.874 96.6937 121.92 96.7672 121.952C96.8407 121.984 96.9199 122 97 122C97.0801 122 97.1593 121.984 97.2328 121.952C97.3063 121.92 97.3725 121.874 97.4274 121.815C97.4823 121.757 97.5246 121.688 97.5518 121.613C97.579 121.537 97.5905 121.457 97.5856 121.377V121.342C99.8606 121.198 102.005 120.229 103.617 118.617C105.229 117.005 106.198 114.861 106.342 112.586H106.377C106.457 112.591 106.537 112.579 106.613 112.552C106.688 112.525 106.757 112.482 106.815 112.427C106.874 112.373 106.92 112.306 106.952 112.233C106.984 112.159 107 112.08 107 112C107 111.92 106.984 111.841 106.952 111.767C106.92 111.694 106.874 111.627 106.815 111.573C106.757 111.518 106.688 111.475 106.613 111.448C106.537 111.421 106.457 111.409 106.377 111.414H106.342C106.198 109.139 105.229 106.995 103.617 105.383C102.005 103.771 99.8606 102.802 97.5856 102.658V102.623C97.5905 102.543 97.579 102.463 97.5518 102.387C97.5246 102.312 97.4823 102.243 97.4274 102.185C97.3725 102.126 97.3063 102.08 97.2328 102.048C97.1593 102.016 97.0801 102 97 102C96.9199 102 96.8407 102.016 96.7672 102.048C96.6937 102.08 96.6275 102.126 96.5726 102.185C96.5177 102.243 96.4754 102.312 96.4482 102.387C96.421 102.463 96.4095 102.543 96.4144 102.623V102.658C94.9066 102.742 93.4419 103.192 92.1481 103.971L90.3769 102.2C90.3143 102.139 90.2386 102.092 90.1555 102.065C90.082 102.039 90.0041 102.029 89.9264 102.033C89.8487 102.038 89.7727 102.058 89.7028 102.092C89.6329 102.126 89.5704 102.174 89.5189 102.232C89.4674 102.291 89.4279 102.359 89.4028 102.432L88.9113 103.909L87.4345 104.405C87.3402 104.437 87.2557 104.494 87.189 104.568C87.1224 104.642 87.0757 104.732 87.0536 104.829C87.0314 104.927 87.0344 105.028 87.0624 105.124C87.0903 105.22 87.1422 105.307 87.2131 105.377L89.7216 107.899H91.8182C91.9729 107.901 92.1205 107.964 92.23 108.074L95.8742 111.718C95.8169 111.953 95.8347 112.2 95.925 112.425C96.0154 112.65 96.1737 112.84 96.3779 112.97C96.5821 113.101 96.8219 113.164 97.0636 113.151C97.3054 113.138 97.5371 113.049 97.7261 112.898C97.9152 112.747 98.0522 112.54 98.1179 112.307C98.1837 112.074 98.1749 111.826 98.0927 111.599C98.0106 111.371 97.8593 111.174 97.6599 111.037C97.4606 110.9 97.2233 110.828 96.9812 110.832C96.8854 110.841 96.791 110.861 96.7 110.892L95.8056 109.984C96.1641 109.765 96.5768 109.652 96.9967 109.657C97.6162 109.66 98.2093 109.908 98.6468 110.347C99.0842 110.786 99.3307 111.379 99.3324 111.999C99.3228 112.616 99.0739 113.206 98.6382 113.643C98.2024 114.08 97.6139 114.332 96.9967 114.343C96.4024 114.342 95.8308 114.115 95.3979 113.708C94.9649 113.301 94.703 112.745 94.6654 112.152L92.6728 110.159C92.2796 111.087 92.196 112.117 92.4341 113.096C92.6723 114.075 93.2197 114.951 93.9951 115.595C94.7705 116.238 95.7327 116.615 96.7389 116.668C97.7451 116.722 98.7418 116.45 99.5812 115.892C100.421 115.335 101.058 114.522 101.399 113.573C101.74 112.625 101.766 111.592 101.474 110.628C101.181 109.664 100.586 108.819 99.776 108.22C98.966 107.621 97.9844 107.298 96.9768 107.301C95.9389 107.301 94.9316 107.652 94.1185 108.297L93.2861 107.465C94.3218 106.598 95.6283 106.121 96.979 106.116C98.1379 106.117 99.2708 106.461 100.234 107.105C101.198 107.749 101.948 108.665 102.392 109.736C102.835 110.806 102.951 111.985 102.724 113.121C102.498 114.258 101.94 115.302 101.12 116.121C100.3 116.941 99.256 117.499 98.1192 117.725C96.9825 117.951 95.8043 117.834 94.7336 117.391C93.6629 116.947 92.7477 116.196 92.1039 115.232C91.46 114.269 91.1164 113.136 91.1164 111.977C91.1213 111.04 91.3546 110.119 91.7961 109.293L91.5503 109.045H89.4515C89.2974 109.043 89.1504 108.98 89.0419 108.871L88.3976 108.235C87.9721 109.237 87.7184 110.304 87.6471 111.39H87.6117L87.6227 111.414ZM91.7141 106.703H90.202L88.7009 105.202L89.5577 104.914C89.6449 104.884 89.724 104.835 89.7889 104.77C89.8538 104.705 89.9027 104.625 89.9319 104.538L90.2131 103.683L91.7141 105.184V106.703Z" fill="white"/>
<rect x="142" y="221" width="34" height="34" rx="4" fill="#096DD9"/>
<path d="M167.8 234.014L166.624 233.096V232.797C166.624 232.398 166.548 232.002 166.4 231.633C166.253 231.264 166.036 230.929 165.763 230.647C165.489 230.365 165.165 230.141 164.808 229.988C164.451 229.836 164.068 229.757 163.682 229.758H162.127L160.824 228.676C160.306 228.239 159.658 228 158.989 228C158.32 228 157.672 228.239 157.153 228.676L155.847 229.758H154.291C153.512 229.758 152.765 230.079 152.214 230.649C151.663 231.219 151.353 231.991 151.353 232.797V233.102L150.176 234.021C149.812 234.304 149.516 234.671 149.313 235.092C149.109 235.513 149.002 235.976 149 236.447V244.961C149 245.767 149.31 246.54 149.861 247.11C150.412 247.68 151.16 248 151.94 248H166.06C166.84 248 167.588 247.68 168.139 247.11C168.69 246.54 169 245.767 169 244.961V236.447C168.999 235.975 168.893 235.51 168.689 235.088C168.485 234.666 168.189 234.298 167.824 234.014H167.8ZM158.189 240.837L152.507 237.906V232.811C152.506 232.571 152.551 232.333 152.64 232.112C152.728 231.89 152.858 231.689 153.022 231.52C153.186 231.35 153.381 231.216 153.595 231.124C153.81 231.033 154.039 230.986 154.271 230.987H163.682C163.914 230.986 164.143 231.033 164.357 231.125C164.572 231.216 164.766 231.351 164.93 231.52C165.093 231.69 165.223 231.891 165.312 232.112C165.4 232.334 165.445 232.571 165.444 232.811V237.906L159.764 240.837C159.519 240.962 159.25 241.027 158.977 241.027C158.703 241.027 158.434 240.962 158.189 240.837ZM166.036 245.567H161.329C161.179 245.558 161.039 245.49 160.936 245.377C160.833 245.264 160.776 245.115 160.776 244.96C160.776 244.805 160.833 244.655 160.936 244.543C161.039 244.43 161.179 244.361 161.329 244.352H166.036C166.116 244.347 166.196 244.359 166.272 244.387C166.347 244.415 166.417 244.459 166.475 244.516C166.534 244.573 166.58 244.642 166.612 244.718C166.644 244.794 166.661 244.877 166.661 244.96C166.661 245.043 166.644 245.125 166.612 245.201C166.58 245.277 166.534 245.346 166.475 245.403C166.417 245.46 166.347 245.504 166.272 245.532C166.196 245.56 166.116 245.572 166.036 245.567ZM166.036 243.137H163.682C163.526 243.137 163.376 243.073 163.266 242.958C163.155 242.844 163.093 242.689 163.093 242.528C163.093 242.367 163.155 242.212 163.266 242.098C163.376 241.983 163.526 241.919 163.682 241.919H166.036C166.192 241.919 166.342 241.983 166.452 242.098C166.562 242.212 166.624 242.367 166.624 242.528C166.624 242.689 166.562 242.844 166.452 242.958C166.342 243.073 166.192 243.137 166.036 243.137Z" fill="white"/>
<path d="M158.976 232.19C158.278 232.191 157.596 232.405 157.016 232.806C156.436 233.207 155.984 233.777 155.717 234.444C155.45 235.111 155.381 235.844 155.517 236.552C155.653 237.259 155.99 237.909 156.483 238.419C156.977 238.929 157.606 239.276 158.29 239.416C158.975 239.557 159.684 239.485 160.329 239.209C160.973 238.932 161.524 238.465 161.912 237.865C162.3 237.265 162.507 236.56 162.507 235.838C162.504 234.871 162.131 233.945 161.469 233.261C160.807 232.578 159.911 232.193 158.976 232.19ZM160.647 235.57L159.471 237.396C159.429 237.463 159.374 237.52 159.309 237.565C159.245 237.609 159.173 237.64 159.098 237.656C159.022 237.672 158.944 237.672 158.868 237.657C158.792 237.641 158.72 237.61 158.656 237.566C158.598 237.527 158.547 237.477 158.507 237.419L157.618 236.204C157.564 236.141 157.523 236.067 157.499 235.987C157.474 235.907 157.465 235.823 157.473 235.739C157.481 235.656 157.506 235.575 157.546 235.502C157.586 235.429 157.64 235.365 157.705 235.314C157.77 235.264 157.844 235.228 157.923 235.208C158.002 235.189 158.084 235.187 158.164 235.202C158.244 235.216 158.32 235.248 158.387 235.295C158.455 235.342 158.512 235.402 158.556 235.473L158.944 235.997L159.667 234.89C159.709 234.823 159.764 234.767 159.828 234.722C159.891 234.678 159.963 234.647 160.038 234.631C160.113 234.615 160.191 234.615 160.266 234.63C160.342 234.645 160.414 234.676 160.478 234.72C160.542 234.764 160.597 234.82 160.64 234.886C160.683 234.952 160.713 235.026 160.728 235.104C160.743 235.182 160.744 235.262 160.729 235.34C160.714 235.418 160.685 235.492 160.642 235.558L160.647 235.57Z" fill="white"/>
<rect x="51" y="22" width="34" height="34" rx="4" fill="#1890FF"/>
<path d="M73.7041 43.4966C75.1513 41.7392 75.8667 39.4924 75.7021 37.2218C75.5375 34.9513 74.5055 32.8311 72.82 31.3009C71.1345 29.7706 68.9247 28.9477 66.6489 29.0026C64.373 29.0575 62.2056 29.9861 60.5958 31.5958C58.9861 33.2056 58.0575 35.373 58.0026 37.6489C57.9477 39.9247 58.7706 42.1345 60.3009 43.82C61.8311 45.5055 63.9513 46.5375 66.2218 46.7021C68.4924 46.8667 70.7392 46.1513 72.4966 44.7041L76.5424 48.7499C76.7025 48.91 76.9197 49 77.1461 49C77.3726 49 77.5898 48.91 77.7499 48.7499C77.91 48.5898 78 48.3726 78 48.1461C78 47.9197 77.91 47.7025 77.7499 47.5424L73.7041 43.4966ZM66.8887 45.0099C65.4797 45.0103 64.1021 44.5928 62.9304 43.8103C61.7586 43.0277 60.8452 41.9152 60.3058 40.6135C59.7664 39.3118 59.6251 37.8794 59.8999 36.4974C60.1747 35.1154 60.8532 33.8459 61.8495 32.8495C62.8459 31.8532 64.1154 31.1747 65.4974 30.8999C66.8794 30.6251 68.3118 30.7664 69.6135 31.3058C70.9152 31.8452 72.0277 32.7586 72.8103 33.9304C73.5928 35.1021 74.0103 36.4797 74.0099 37.8887C74.0087 39.777 73.2581 41.5876 71.9228 42.9228C70.5876 44.2581 68.777 45.0087 66.8887 45.0099Z" fill="white"/>
<path d="M70.3075 34.47H68.8828V34.1864C68.8828 33.9993 68.846 33.814 68.7744 33.6412C68.7028 33.4683 68.5978 33.3113 68.4656 33.179C68.3333 33.0467 68.1762 32.9417 68.0034 32.8701C67.8305 32.7985 67.6452 32.7617 67.4582 32.7617H66.3193C65.9415 32.7617 65.5791 32.9118 65.3119 33.179C65.0447 33.4461 64.8946 33.8085 64.8946 34.1864V34.47H63.47C63.2454 34.4697 63.0229 34.5137 62.8154 34.5996C62.6078 34.6855 62.4193 34.8115 62.2606 34.9704C62.1019 35.1294 61.9761 35.3181 61.8905 35.5257C61.8049 35.7333 61.7611 35.9559 61.7617 36.1805V40.1686C61.7611 40.3933 61.8049 40.6158 61.8905 40.8234C61.9761 41.031 62.1019 41.2197 62.2606 41.3787C62.4193 41.5376 62.6078 41.6636 62.8154 41.7495C63.0229 41.8354 63.2454 41.8794 63.47 41.8791H70.3075C70.532 41.8791 70.7543 41.8349 70.9617 41.7489C71.1691 41.6629 71.3576 41.5369 71.5162 41.378C71.6749 41.2192 71.8007 41.0306 71.8864 40.8231C71.9721 40.6155 72.0161 40.3932 72.0158 40.1686V36.1805C72.0161 35.9559 71.9721 35.7336 71.8864 35.526C71.8007 35.3185 71.6749 35.13 71.5162 34.9711C71.3576 34.8122 71.1691 34.6862 70.9617 34.6002C70.7543 34.5142 70.532 34.47 70.3075 34.47ZM66.0335 34.1864C66.0329 34.1488 66.0398 34.1116 66.0538 34.0768C66.0678 34.042 66.0887 34.0104 66.1151 33.9837C66.1415 33.9571 66.173 33.936 66.2077 33.9217C66.2424 33.9074 66.2796 33.9002 66.3171 33.9005H67.4559C67.4936 33.9002 67.5309 33.9074 67.5657 33.9217C67.6005 33.936 67.6321 33.957 67.6587 33.9836C67.6853 34.0102 67.7063 34.0418 67.7206 34.0766C67.7349 34.1114 67.7421 34.1487 67.7418 34.1864V34.47H66.0335V34.1864ZM70.3075 39.4508H69.6007V39.5881C69.5784 39.686 69.5235 39.7735 69.445 39.8361C69.3665 39.8987 69.2691 39.9328 69.1686 39.9328C69.0682 39.9328 68.9708 39.8987 68.8923 39.8361C68.8138 39.7735 68.7589 39.686 68.7366 39.5881V39.4508H65.032V39.5881C65.0106 39.6872 64.956 39.7759 64.8772 39.8395C64.7984 39.9031 64.7001 39.9378 64.5988 39.9378C64.4976 39.9378 64.3993 39.9031 64.3205 39.8395C64.2417 39.7759 64.187 39.6872 64.1657 39.5881V39.4508H63.4589C63.3599 39.4294 63.2712 39.3748 63.2075 39.2959C63.1439 39.2171 63.1092 39.1189 63.1092 39.0176C63.1092 38.9163 63.1439 38.8181 63.2075 38.7393C63.2712 38.6605 63.3599 38.6058 63.4589 38.5844H64.1657V38.4471C64.187 38.3481 64.2417 38.2594 64.3205 38.1957C64.3993 38.1321 64.4976 38.0974 64.5988 38.0974C64.7001 38.0974 64.7984 38.1321 64.8772 38.1957C64.956 38.2594 65.0106 38.3481 65.032 38.4471V38.5844H68.7366V38.4471C68.7366 38.3325 68.7821 38.2226 68.8631 38.1416C68.9442 38.0605 69.0541 38.015 69.1686 38.015C69.2832 38.015 69.3931 38.0605 69.4742 38.1416C69.5552 38.2226 69.6007 38.3325 69.6007 38.4471V38.5844H70.3075C70.3721 38.5705 70.4391 38.5712 70.5034 38.5865C70.5678 38.6018 70.6279 38.6313 70.6793 38.6728C70.7308 38.7143 70.7723 38.7669 70.8008 38.8265C70.8293 38.8862 70.8441 38.9515 70.8441 39.0176C70.8441 39.0837 70.8293 39.149 70.8008 39.2087C70.7723 39.2684 70.7308 39.3209 70.6793 39.3624C70.6279 39.404 70.5678 39.4335 70.5034 39.4487C70.4391 39.464 70.3721 39.4647 70.3075 39.4508Z" fill="white"/>
<rect x="238" y="160" width="34" height="34" rx="4" fill="#1890FF"/>
<path d="M263.545 175.235H262.658V167.589C262.658 167.512 262.644 167.435 262.615 167.364C262.586 167.293 262.544 167.228 262.49 167.173C262.436 167.118 262.371 167.075 262.3 167.045C262.229 167.015 262.153 167 262.076 167H261.043C260.089 167 259.148 167.221 258.294 167.647C257.554 168.018 256.733 168.199 255.905 168.175C255.516 168.176 255.143 168.331 254.868 168.607C254.593 168.883 254.439 169.257 254.439 169.647V172.589C254.439 172.978 254.594 173.352 254.869 173.627C255.143 173.903 255.516 174.057 255.905 174.057C256.911 174.077 257.908 173.855 258.811 173.411C259.5 173.067 260.259 172.886 261.029 172.882H261.473V175.235H260.586C260.196 175.235 259.823 175.39 259.547 175.666C259.272 175.942 259.117 176.316 259.117 176.706V178.764H255.905C255.516 178.764 255.143 178.92 254.868 179.195C254.592 179.471 254.437 179.845 254.437 180.235V182.292H251.2C250.811 182.293 250.438 182.448 250.164 182.724C249.889 183 249.734 183.374 249.734 183.764V185.823H245.624C245.544 185.818 245.464 185.83 245.388 185.857C245.313 185.885 245.244 185.927 245.185 185.982C245.127 186.037 245.08 186.104 245.048 186.177C245.016 186.251 245 186.331 245 186.411C245 186.492 245.016 186.571 245.048 186.645C245.08 186.719 245.127 186.785 245.185 186.84C245.244 186.895 245.313 186.938 245.388 186.965C245.464 186.992 245.544 187.004 245.624 186.999H264.412C264.49 187 264.566 186.985 264.638 186.956C264.71 186.927 264.775 186.883 264.83 186.828C264.885 186.774 264.928 186.708 264.957 186.636C264.986 186.565 265.001 186.488 265 186.41V176.706C265 176.316 264.845 175.942 264.57 175.666C264.294 175.39 263.921 175.235 263.532 175.235H263.545ZM261.489 171.706H261.045C260.091 171.706 259.15 171.927 258.297 172.353C257.555 172.724 256.734 172.906 255.905 172.882C255.867 172.882 255.829 172.875 255.793 172.86C255.757 172.846 255.725 172.824 255.698 172.797C255.67 172.769 255.649 172.737 255.634 172.701C255.62 172.665 255.612 172.627 255.613 172.589V169.647C255.612 169.608 255.62 169.57 255.634 169.534C255.649 169.498 255.67 169.466 255.698 169.438C255.725 169.411 255.757 169.39 255.793 169.375C255.829 169.36 255.867 169.353 255.905 169.353C256.911 169.371 257.907 169.149 258.811 168.707C259.5 168.361 260.259 168.179 261.029 168.175H261.473V171.706H261.489Z" fill="white"/>
<rect x="17" y="218" width="34" height="34" rx="4" fill="#91D5FF"/>
<path d="M32.2126 232.185C32.4224 232.46 32.6922 232.682 33.001 232.835C33.3099 232.989 33.6496 233.068 33.9939 233.068C34.3383 233.068 34.678 232.989 34.9868 232.835C35.2957 232.682 35.5654 232.46 35.7752 232.185C35.8338 232.12 35.8787 232.044 35.9071 231.961C35.9355 231.879 35.9468 231.791 35.9405 231.704C35.9341 231.616 35.9102 231.531 35.87 231.454C35.8299 231.376 35.7745 231.307 35.7072 231.252C35.6399 231.196 35.562 231.155 35.4784 231.131C35.3948 231.107 35.3071 231.1 35.2208 231.111C35.1344 231.122 35.0512 231.15 34.9762 231.195C34.9012 231.239 34.8359 231.298 34.7844 231.369C34.6923 231.492 34.573 231.593 34.4358 231.662C34.2986 231.731 34.1473 231.766 33.9939 231.766C33.8406 231.766 33.6893 231.731 33.5521 231.662C33.4149 231.593 33.2955 231.492 33.2035 231.369L33.184 231.34C33.0703 231.222 32.9164 231.153 32.7536 231.146C32.5908 231.138 32.4313 231.194 32.3076 231.3C32.1839 231.407 32.1053 231.557 32.0876 231.72C32.07 231.883 32.1147 232.047 32.2126 232.178V232.185Z" fill="white"/>
<path d="M25 243.412C25.0013 244.098 25.2727 244.756 25.7547 245.241C26.2367 245.726 26.8901 245.999 27.5718 246H40.4282C41.1099 245.999 41.7633 245.726 42.2453 245.241C42.7274 244.756 42.9987 244.098 43 243.412C43.0007 241.523 42.4115 239.681 41.3156 238.146C40.2197 236.612 38.6725 235.463 36.8923 234.861C37.9951 234.22 38.857 233.231 39.3443 232.047C39.8317 230.864 39.9171 229.551 39.5876 228.314C39.258 227.076 38.5317 225.983 37.5215 225.203C36.5112 224.423 35.2734 224 34 224C32.7266 224 31.4888 224.423 30.4785 225.203C29.4683 225.983 28.742 227.076 28.4124 228.314C28.0829 229.551 28.1684 230.864 28.6557 232.047C29.143 233.231 30.0049 234.22 31.1077 234.861C29.3265 235.461 27.7783 236.61 26.6821 238.145C25.586 239.68 24.9975 241.522 25 243.412ZM38.5 229.817C38.5 231.018 38.0259 232.17 37.182 233.019C36.3381 233.868 35.1935 234.345 34 234.345C32.8065 234.345 31.6619 233.868 30.818 233.019C29.9741 232.17 29.5 231.018 29.5 229.817V229.754C30.1653 229.685 30.8136 229.501 31.4161 229.209V229.817C31.4107 229.906 31.4233 229.994 31.4531 230.077C31.483 230.16 31.5294 230.236 31.5896 230.301C31.6498 230.365 31.7224 230.416 31.803 230.451C31.8837 230.487 31.9706 230.505 32.0584 230.505C32.1463 230.505 32.2332 230.487 32.3138 230.451C32.3944 230.416 32.4671 230.365 32.5272 230.301C32.5874 230.236 32.6339 230.16 32.6637 230.077C32.6935 229.994 32.7062 229.906 32.7008 229.817V228.84C32.7017 228.694 32.6519 228.552 32.5599 228.439C32.7396 228.283 32.895 228.102 33.0626 227.934C33.7539 228.411 34.5 228.802 35.2847 229.099V229.81C35.2847 229.982 35.3525 230.146 35.4732 230.268C35.5939 230.389 35.7575 230.458 35.9282 230.458C36.0989 230.458 36.2626 230.389 36.3833 230.268C36.504 230.146 36.5718 229.982 36.5718 229.81V229.507C37.1912 229.664 37.8236 229.764 38.4611 229.805H38.5V229.817ZM32.0718 235.926C32.6236 235.785 33.1884 235.701 33.7572 235.677L32.0742 236.945V235.936L32.0718 235.926ZM34.2429 235.652C34.8114 235.678 35.3756 235.765 35.9258 235.911V236.933L34.2429 235.664V235.652ZM27.5936 244.693C27.2531 244.692 26.9267 244.556 26.6859 244.313C26.4452 244.071 26.3096 243.743 26.309 243.4C26.3032 241.916 26.7255 240.463 27.5247 239.216C28.3239 237.969 29.4657 236.982 30.8114 236.375V238.225C30.8123 238.345 30.8461 238.462 30.9091 238.564C30.9721 238.666 31.0619 238.748 31.1685 238.802C31.275 238.855 31.3943 238.878 31.513 238.868C31.6317 238.857 31.7452 238.814 31.8411 238.743L33.1889 237.722L32.5089 240.813H31.4549C31.2843 240.813 31.1206 240.881 30.9999 241.002C30.8792 241.124 30.8114 241.288 30.8114 241.46C30.8114 241.632 30.8792 241.797 30.9999 241.918C31.1206 242.039 31.2843 242.108 31.4549 242.108H32.2248L32.1106 242.611C32.0852 242.716 32.0872 242.827 32.1166 242.931C32.146 243.036 32.2016 243.131 32.2782 243.207L33.5629 244.5C33.5687 244.507 33.5752 244.513 33.5823 244.519C33.7019 244.634 33.8618 244.697 34.0271 244.693C34.1924 244.689 34.3494 244.62 34.4638 244.5L35.7485 243.207C35.8251 243.131 35.8808 243.036 35.9101 242.931C35.9395 242.827 35.9415 242.716 35.9161 242.611L34.8354 237.724L36.1856 238.743C36.2815 238.814 36.3951 238.857 36.5138 238.868C36.6325 238.878 36.7517 238.855 36.8583 238.802C36.9648 238.748 37.0546 238.666 37.1176 238.564C37.1806 238.462 37.2144 238.345 37.2153 238.225V236.375C38.5606 236.983 39.7018 237.97 40.5006 239.216C41.2994 240.463 41.7213 241.917 41.7153 243.4C41.714 243.743 41.578 244.071 41.3368 244.314C41.0956 244.556 40.769 244.692 40.4282 244.693H39.7847V241.46C39.7901 241.372 39.7775 241.284 39.7476 241.2C39.7178 241.117 39.6713 241.041 39.6112 240.977C39.551 240.912 39.4783 240.861 39.3977 240.826C39.3171 240.791 39.2302 240.773 39.1423 240.773C39.0545 240.773 38.9676 240.791 38.887 240.826C38.8063 240.861 38.7337 240.912 38.6735 240.977C38.6133 241.041 38.5669 241.117 38.5371 241.2C38.5072 241.284 38.4946 241.372 38.5 241.46V244.693H29.5V241.46C29.5054 241.372 29.4928 241.284 29.4629 241.2C29.4331 241.117 29.3867 241.041 29.3265 240.977C29.2663 240.912 29.1937 240.861 29.113 240.826C29.0324 240.791 28.9455 240.773 28.8577 240.773C28.7698 240.773 28.6829 240.791 28.6023 240.826C28.5217 240.861 28.449 240.912 28.3888 240.977C28.3287 241.041 28.2822 241.117 28.2524 241.2C28.2226 241.284 28.2099 241.372 28.2153 241.46V244.693H27.5936Z" fill="white"/>
<rect x="276" y="235" width="34" height="34" rx="4" fill="#096DD9"/>
<path d="M300.071 244.353H295.953V243.764C295.954 243.533 295.908 243.303 295.82 243.089C295.731 242.875 295.601 242.68 295.437 242.516C295.273 242.352 295.079 242.222 294.864 242.134C294.65 242.045 294.421 242 294.189 242H291.836C291.604 242 291.374 242.045 291.16 242.134C290.946 242.222 290.751 242.352 290.587 242.516C290.423 242.68 290.293 242.875 290.205 243.089C290.116 243.303 290.071 243.533 290.071 243.764V244.353H285.953C285.173 244.353 284.425 244.663 283.874 245.214C283.322 245.766 283.012 246.513 283.011 247.293V252C283.011 252.232 283.056 252.462 283.145 252.676C283.234 252.89 283.364 253.085 283.528 253.249C283.692 253.413 283.887 253.543 284.102 253.631C284.316 253.72 284.546 253.765 284.778 253.764H287.718V253.176C287.727 253.026 287.793 252.885 287.902 252.783C288.011 252.68 288.156 252.623 288.306 252.623C288.455 252.623 288.6 252.68 288.709 252.783C288.818 252.885 288.884 253.026 288.893 253.176V253.764H293.318C293.078 254.132 292.885 254.528 292.742 254.942H288.882V255.529C288.887 255.609 288.876 255.69 288.848 255.765C288.821 255.841 288.779 255.91 288.723 255.968C288.668 256.027 288.602 256.074 288.528 256.106C288.454 256.137 288.375 256.154 288.294 256.154C288.214 256.154 288.135 256.137 288.061 256.106C287.987 256.074 287.921 256.027 287.865 255.968C287.81 255.91 287.768 255.841 287.741 255.765C287.713 255.69 287.702 255.609 287.707 255.529V254.942H284.764C284.127 254.936 283.509 254.726 283 254.342V256.707C283 257.093 283.076 257.475 283.224 257.832C283.372 258.189 283.589 258.513 283.862 258.786C284.135 259.059 284.459 259.276 284.816 259.424C285.173 259.571 285.556 259.647 285.942 259.647H292.471C292.607 260.311 292.968 260.908 293.493 261.337C294.018 261.766 294.675 262 295.353 262H300.058C300.838 262 301.586 261.69 302.138 261.138C302.69 260.586 303 259.838 303 259.058V256.707C303 255.585 302.637 254.494 301.964 253.596C302.272 253.457 302.533 253.233 302.717 252.95C302.901 252.667 302.999 252.337 303 252V247.293C303 246.907 302.924 246.525 302.776 246.168C302.628 245.811 302.411 245.487 302.138 245.214C301.865 244.941 301.541 244.724 301.184 244.576C300.827 244.429 300.444 244.353 300.058 244.353H300.071ZM291.247 243.764C291.246 243.687 291.261 243.61 291.29 243.538C291.32 243.467 291.363 243.402 291.418 243.347C291.473 243.292 291.538 243.249 291.609 243.219C291.681 243.19 291.758 243.175 291.836 243.176H294.189C294.266 243.175 294.343 243.189 294.415 243.219C294.487 243.248 294.552 243.291 294.607 243.346C294.662 243.401 294.705 243.466 294.735 243.538C294.764 243.61 294.779 243.687 294.778 243.764V244.353H291.247V243.764ZM288.307 247.882C288.226 247.887 288.146 247.876 288.07 247.848C287.995 247.821 287.926 247.779 287.867 247.723C287.809 247.668 287.762 247.602 287.73 247.528C287.698 247.454 287.682 247.375 287.682 247.294C287.682 247.214 287.698 247.135 287.73 247.061C287.762 246.987 287.809 246.921 287.867 246.865C287.926 246.81 287.995 246.768 288.07 246.741C288.146 246.713 288.226 246.702 288.307 246.707H297.718C297.798 246.702 297.878 246.713 297.954 246.741C298.03 246.768 298.099 246.81 298.157 246.865C298.216 246.921 298.263 246.987 298.294 247.061C298.326 247.135 298.343 247.214 298.343 247.294C298.343 247.375 298.326 247.454 298.294 247.528C298.263 247.602 298.216 247.668 298.157 247.723C298.099 247.779 298.03 247.821 297.954 247.848C297.878 247.876 297.798 247.887 297.718 247.882H288.307ZM299.118 250.236L298.493 251.493C297.98 251.388 297.451 251.388 296.938 251.493L296.313 250.236H299.118ZM301.836 259.058C301.836 259.29 301.79 259.519 301.702 259.734C301.613 259.948 301.483 260.143 301.32 260.307C301.156 260.471 300.961 260.601 300.747 260.69C300.533 260.779 300.303 260.824 300.071 260.824H295.364C295.133 260.824 294.903 260.779 294.689 260.69C294.474 260.601 294.28 260.471 294.116 260.307C293.952 260.143 293.822 259.948 293.734 259.734C293.645 259.519 293.6 259.29 293.6 259.058V256.707C293.6 255.615 294.034 254.567 294.806 253.795C295.578 253.023 296.626 252.589 297.718 252.589C298.81 252.589 299.857 253.023 300.629 253.795C301.402 254.567 301.836 255.615 301.836 256.707V259.058Z" fill="white"/>
<path d="M298.011 256.118H297.424C297.384 256.121 297.343 256.116 297.304 256.103C297.265 256.09 297.229 256.069 297.199 256.041C297.169 256.013 297.145 255.98 297.128 255.942C297.112 255.905 297.103 255.864 297.103 255.823C297.103 255.782 297.112 255.742 297.128 255.704C297.145 255.667 297.169 255.633 297.199 255.605C297.229 255.578 297.265 255.557 297.304 255.544C297.343 255.53 297.384 255.525 297.424 255.529H298.6C298.68 255.534 298.761 255.522 298.836 255.495C298.912 255.468 298.981 255.425 299.04 255.37C299.098 255.315 299.145 255.249 299.177 255.175C299.209 255.101 299.225 255.021 299.225 254.941C299.225 254.861 299.209 254.781 299.177 254.707C299.145 254.634 299.098 254.567 299.04 254.512C298.981 254.457 298.912 254.415 298.836 254.387C298.761 254.36 298.68 254.348 298.6 254.353H298.307V254.058C298.307 253.902 298.245 253.752 298.134 253.641C298.024 253.531 297.874 253.469 297.718 253.469C297.562 253.469 297.412 253.531 297.301 253.641C297.191 253.752 297.129 253.902 297.129 254.058V254.411C296.8 254.474 296.503 254.65 296.288 254.907C296.074 255.165 295.956 255.489 295.953 255.824C295.953 256.018 295.991 256.209 296.065 256.387C296.139 256.565 296.248 256.727 296.384 256.864C296.521 257 296.683 257.108 296.862 257.182C297.04 257.256 297.231 257.294 297.424 257.293H298.011C298.052 257.29 298.093 257.295 298.132 257.308C298.171 257.321 298.206 257.342 298.236 257.37C298.267 257.398 298.291 257.431 298.307 257.469C298.324 257.506 298.332 257.547 298.332 257.588C298.332 257.629 298.324 257.669 298.307 257.707C298.291 257.744 298.267 257.778 298.236 257.806C298.206 257.833 298.171 257.854 298.132 257.868C298.093 257.881 298.052 257.886 298.011 257.882H296.836C296.755 257.877 296.675 257.889 296.599 257.916C296.524 257.943 296.455 257.986 296.396 258.041C296.337 258.096 296.291 258.163 296.259 258.236C296.227 258.31 296.211 258.39 296.211 258.47C296.211 258.55 296.227 258.63 296.259 258.704C296.291 258.777 296.337 258.844 296.396 258.899C296.455 258.954 296.524 258.997 296.599 259.024C296.675 259.051 296.755 259.063 296.836 259.058H297.129V259.353C297.129 259.51 297.191 259.659 297.301 259.77C297.412 259.88 297.562 259.942 297.718 259.942C297.874 259.942 298.024 259.88 298.134 259.77C298.245 259.659 298.307 259.51 298.307 259.353V259C298.635 258.936 298.932 258.761 299.146 258.504C299.36 258.247 299.479 257.924 299.482 257.589C299.482 257.199 299.327 256.825 299.051 256.549C298.775 256.273 298.401 256.118 298.011 256.118Z" fill="white"/>
<rect x="305" y="112" width="34" height="34" rx="4" fill="#91D5FF"/>
<path d="M314.942 139H326.707C327.094 139 327.478 138.924 327.835 138.775C328.193 138.626 328.518 138.409 328.791 138.134C329.064 137.86 329.28 137.534 329.427 137.176C329.574 136.818 329.649 136.434 329.647 136.047V133.942L331.825 131.764C331.881 131.71 331.925 131.645 331.955 131.573C331.985 131.501 332 131.424 332 131.347C332 131.269 331.985 131.192 331.955 131.12C331.925 131.049 331.881 130.984 331.825 130.929L329.647 128.753V124.293C329.65 124.217 329.634 124.14 329.601 124.071C329.571 124 329.528 123.936 329.472 123.882L324.765 119.176C324.705 119.128 324.642 119.085 324.576 119.047C324.507 119.014 324.431 118.998 324.354 119H314.942C314.162 119 313.414 119.31 312.862 119.862C312.31 120.414 312 121.162 312 121.942V136.058C312 136.838 312.31 137.586 312.862 138.138C313.414 138.69 314.162 139 314.942 139ZM328.647 133.282L326.472 135.458H324.954V133.942L327.601 131.293L329.112 132.811L328.647 133.282ZM329.058 129.825L330.576 131.342L329.943 131.976L328.425 130.458L329.058 129.825ZM324.943 121L327.636 123.693H326.707C326.475 123.694 326.246 123.649 326.031 123.56C325.817 123.472 325.622 123.342 325.458 123.178C325.294 123.014 325.164 122.819 325.076 122.605C324.987 122.391 324.942 122.161 324.943 121.929V121ZM314.942 121.342H319.647C319.727 121.337 319.808 121.349 319.883 121.376C319.959 121.404 320.028 121.446 320.087 121.501C320.145 121.556 320.192 121.623 320.224 121.696C320.256 121.77 320.272 121.85 320.272 121.93C320.272 122.011 320.256 122.09 320.224 122.164C320.192 122.238 320.145 122.304 320.087 122.359C320.028 122.414 319.959 122.457 319.883 122.484C319.808 122.511 319.727 122.523 319.647 122.518H314.942C314.862 122.523 314.782 122.511 314.706 122.484C314.631 122.457 314.561 122.414 314.503 122.359C314.444 122.304 314.398 122.238 314.366 122.164C314.334 122.09 314.317 122.011 314.317 121.93C314.317 121.85 314.334 121.77 314.366 121.696C314.398 121.623 314.444 121.556 314.503 121.501C314.561 121.446 314.631 121.404 314.706 121.376C314.782 121.349 314.862 121.337 314.942 121.342ZM314.942 123.693H319.647C319.803 123.693 319.953 123.755 320.063 123.866C320.174 123.976 320.236 124.126 320.236 124.282C320.236 124.439 320.174 124.588 320.063 124.699C319.953 124.809 319.803 124.871 319.647 124.871H314.942C314.786 124.871 314.636 124.809 314.526 124.699C314.415 124.588 314.353 124.439 314.353 124.282C314.353 124.126 314.415 123.976 314.526 123.866C314.636 123.755 314.786 123.693 314.942 123.693ZM314.942 126.047H326.707C326.863 126.047 327.013 126.109 327.124 126.219C327.234 126.33 327.296 126.479 327.296 126.636C327.296 126.792 327.234 126.942 327.124 127.052C327.013 127.162 326.863 127.225 326.707 127.225H314.942C314.786 127.225 314.636 127.162 314.526 127.052C314.415 126.942 314.353 126.792 314.353 126.636C314.353 126.479 314.415 126.33 314.526 126.219C314.636 126.109 314.786 126.047 314.942 126.047ZM314.942 128.4H326.707C326.857 128.409 326.997 128.475 327.1 128.584C327.203 128.694 327.26 128.838 327.26 128.988C327.26 129.138 327.203 129.282 327.1 129.391C326.997 129.5 326.857 129.566 326.707 129.576H314.942C314.862 129.581 314.782 129.569 314.706 129.542C314.631 129.514 314.561 129.472 314.503 129.417C314.444 129.362 314.398 129.295 314.366 129.222C314.334 129.148 314.317 129.068 314.317 128.988C314.317 128.907 314.334 128.828 314.366 128.754C314.398 128.68 314.444 128.614 314.503 128.559C314.561 128.504 314.631 128.461 314.706 128.434C314.782 128.407 314.862 128.395 314.942 128.4ZM314.942 130.753H324.354C324.434 130.748 324.514 130.76 324.59 130.787C324.666 130.815 324.735 130.857 324.793 130.912C324.852 130.967 324.899 131.034 324.931 131.107C324.962 131.181 324.979 131.261 324.979 131.341C324.979 131.422 324.962 131.501 324.931 131.575C324.899 131.649 324.852 131.715 324.793 131.77C324.735 131.825 324.666 131.868 324.59 131.895C324.514 131.922 324.434 131.934 324.354 131.929H314.942C314.862 131.934 314.782 131.922 314.706 131.895C314.631 131.868 314.561 131.825 314.503 131.77C314.444 131.715 314.398 131.649 314.366 131.575C314.334 131.501 314.317 131.422 314.317 131.341C314.317 131.261 314.334 131.181 314.366 131.107C314.398 131.034 314.444 130.967 314.503 130.912C314.561 130.857 314.631 130.815 314.706 130.787C314.782 130.76 314.862 130.748 314.942 130.753ZM314.942 135.458C315.165 135.458 315.342 135.107 315.589 134.611C315.907 133.976 316.342 133.107 317.294 133.107C318.245 133.107 318.682 133.976 319 134.611C319.247 135.107 319.445 135.458 319.647 135.458C319.976 135.458 320.118 135.329 320.411 135.047C320.729 134.729 321.176 134.282 322 134.282C322.081 134.277 322.161 134.289 322.237 134.316C322.312 134.343 322.381 134.386 322.44 134.441C322.499 134.496 322.545 134.563 322.577 134.636C322.609 134.71 322.625 134.79 322.625 134.87C322.625 134.95 322.609 135.03 322.577 135.104C322.545 135.177 322.499 135.244 322.44 135.299C322.381 135.354 322.312 135.397 322.237 135.424C322.161 135.451 322.081 135.463 322 135.458C321.671 135.458 321.529 135.589 321.236 135.871C320.918 136.189 320.471 136.636 319.647 136.636C318.694 136.636 318.258 135.764 317.942 135.129C317.694 134.636 317.498 134.282 317.294 134.282C317.089 134.282 316.894 134.636 316.647 135.129C316.329 135.764 315.893 136.636 314.942 136.636C314.786 136.636 314.636 136.574 314.526 136.463C314.415 136.353 314.353 136.203 314.353 136.047C314.353 135.891 314.415 135.741 314.526 135.63C314.636 135.52 314.786 135.458 314.942 135.458Z" fill="white"/>
<rect y="121" width="34" height="34" rx="4" fill="#91D5FF"/>
<path d="M25.2375 136.236C25.469 136.236 25.6984 136.19 25.9123 136.102C26.1263 136.013 26.3207 135.883 26.4844 135.719C26.6481 135.555 26.778 135.361 26.8664 135.147C26.9549 134.932 27.0003 134.703 27 134.471V132.118C27.0006 131.886 26.9554 131.656 26.867 131.442C26.7787 131.228 26.6489 131.033 26.4851 130.869C26.3213 130.705 26.1268 130.575 25.9127 130.486C25.6986 130.398 25.4691 130.353 25.2375 130.353H19.9501V129.764C19.9503 129.533 19.905 129.303 19.8165 129.089C19.728 128.875 19.5982 128.68 19.4345 128.516C19.2708 128.352 19.0764 128.222 18.8624 128.134C18.6484 128.045 18.4191 128 18.1876 128H8.7869C8.55537 128 8.32605 128.045 8.11208 128.134C7.89812 128.222 7.70371 128.352 7.53999 128.516C7.37627 128.68 7.24645 128.875 7.15798 129.089C7.06951 129.303 7.02413 129.533 7.02442 129.764V132.118C7.02413 132.35 7.06951 132.579 7.15798 132.793C7.24645 133.008 7.37627 133.202 7.53999 133.366C7.70371 133.53 7.89812 133.66 8.11208 133.748C8.32605 133.837 8.55537 133.882 8.7869 133.882H9.12875L10.1188 134.889C10.173 134.945 10.2378 134.989 10.3095 135.02C10.3812 135.05 10.4582 135.066 10.5361 135.066C10.6139 135.066 10.6909 135.05 10.7626 135.02C10.8343 134.989 10.8992 134.945 10.9534 134.889L11.9523 133.889H16.4118V134.478C16.4115 134.71 16.4569 134.939 16.5453 135.153C16.6338 135.368 16.7636 135.562 16.9273 135.726C17.0911 135.89 17.2855 136.02 17.4994 136.108C17.7134 136.197 17.9427 136.242 18.1742 136.242H22.0411L23.04 137.242C23.0942 137.298 23.159 137.343 23.2307 137.373C23.3024 137.403 23.3794 137.419 23.4573 137.419C23.5351 137.419 23.6121 137.403 23.6838 137.373C23.7555 137.343 23.8204 137.298 23.8746 137.242L24.8735 136.242H25.2375V136.236ZM18.7514 130.353H18.1631C17.9316 130.353 17.7023 130.398 17.4883 130.487C17.2744 130.576 17.08 130.706 16.9162 130.869C16.7525 131.033 16.6227 131.228 16.5342 131.442C16.4458 131.656 16.4004 131.886 16.4007 132.118V132.707H11.6992C11.5448 132.71 11.3976 132.773 11.2886 132.882L10.525 133.647L9.76138 132.889C9.70855 132.832 9.64454 132.788 9.57345 132.757C9.50235 132.727 9.42573 132.712 9.3485 132.713H8.76249C8.68499 132.714 8.6081 132.7 8.53633 132.67C8.46455 132.641 8.39935 132.598 8.34455 132.543C8.28975 132.488 8.24645 132.423 8.21721 132.351C8.18796 132.279 8.17336 132.202 8.17425 132.124V129.764C8.17336 129.687 8.18796 129.61 8.21721 129.538C8.24645 129.466 8.28975 129.401 8.34455 129.346C8.39935 129.291 8.46455 129.248 8.53633 129.219C8.6081 129.189 8.68499 129.175 8.76249 129.176H18.1631C18.2406 129.175 18.3173 129.19 18.389 129.219C18.4606 129.249 18.5257 129.292 18.5804 129.347C18.6352 129.402 18.6785 129.467 18.7078 129.538C18.7372 129.61 18.752 129.687 18.7514 129.764V130.353ZM25.8013 134.471C25.8022 134.549 25.7876 134.625 25.7583 134.697C25.7291 134.769 25.6857 134.834 25.6309 134.889C25.5761 134.943 25.5108 134.987 25.4391 135.016C25.3673 135.045 25.2905 135.059 25.2131 135.058H24.6271C24.4723 135.061 24.325 135.125 24.2164 135.236L23.4528 136L22.687 135.236C22.6347 135.179 22.5712 135.134 22.5005 135.103C22.4297 135.073 22.3534 135.057 22.2764 135.058H18.1631C18.0858 135.059 18.0091 135.044 17.9375 135.015C17.8659 134.986 17.8008 134.943 17.746 134.888C17.6912 134.833 17.6479 134.768 17.6185 134.697C17.5891 134.625 17.5743 134.548 17.5749 134.471V132.118C17.5743 132.04 17.5891 131.963 17.6185 131.892C17.6478 131.82 17.6911 131.755 17.7459 131.7C17.8006 131.645 17.8657 131.602 17.9373 131.572C18.009 131.543 18.0857 131.528 18.1631 131.529H25.2131C25.2904 131.528 25.3671 131.543 25.4386 131.573C25.5101 131.602 25.575 131.645 25.6296 131.7C25.6841 131.755 25.7272 131.82 25.7564 131.892C25.7855 131.964 25.8 132.04 25.7991 132.118L25.8013 134.471Z" fill="white"/>
<path d="M15.8124 130.94C15.8133 130.863 15.7987 130.786 15.7694 130.714C15.7402 130.642 15.6968 130.577 15.642 130.522C15.5872 130.468 15.5219 130.425 15.4502 130.396C15.3784 130.366 15.3016 130.352 15.2242 130.353H9.93674C9.8566 130.348 9.7763 130.36 9.70078 130.387C9.62527 130.415 9.55614 130.457 9.49765 130.512C9.43915 130.567 9.39254 130.634 9.36068 130.707C9.32882 130.781 9.31238 130.861 9.31238 130.941C9.31238 131.021 9.32882 131.101 9.36068 131.175C9.39254 131.249 9.43915 131.315 9.49765 131.37C9.55614 131.425 9.62527 131.468 9.70078 131.495C9.7763 131.522 9.8566 131.534 9.93674 131.529H15.2242C15.3018 131.53 15.3788 131.516 15.4507 131.486C15.5226 131.457 15.5879 131.414 15.6428 131.359C15.6977 131.304 15.741 131.239 15.7701 131.167C15.7992 131.095 15.8136 131.018 15.8124 130.94ZM24.6271 133.293C24.628 133.216 24.6134 133.139 24.5841 133.067C24.5548 132.996 24.5115 132.93 24.4566 132.876C24.4018 132.821 24.3366 132.778 24.2648 132.749C24.1931 132.72 24.1162 132.705 24.0388 132.707H23.7458C23.6657 132.702 23.5854 132.713 23.5099 132.741C23.4344 132.768 23.3652 132.81 23.3067 132.865C23.2483 132.92 23.2016 132.987 23.1698 133.061C23.1379 133.135 23.1215 133.214 23.1215 133.294C23.1215 133.375 23.1379 133.454 23.1698 133.528C23.2016 133.602 23.2483 133.668 23.3067 133.723C23.3652 133.778 23.4344 133.821 23.5099 133.848C23.5854 133.876 23.6657 133.887 23.7458 133.882H24.0388C24.1163 133.883 24.1932 133.868 24.265 133.839C24.3368 133.81 24.402 133.767 24.4568 133.712C24.5116 133.657 24.5549 133.592 24.5841 133.52C24.6134 133.448 24.628 133.371 24.6271 133.293ZM22.4073 133.293C22.4079 133.216 22.3931 133.139 22.3637 133.068C22.3343 132.996 22.291 132.931 22.2362 132.876C22.1814 132.822 22.1163 132.779 22.0447 132.749C21.9731 132.72 21.8964 132.706 21.8191 132.707H21.5372C21.457 132.702 21.3767 132.713 21.3012 132.741C21.2257 132.768 21.1566 132.81 21.0981 132.865C21.0396 132.92 20.993 132.987 20.9611 133.061C20.9293 133.135 20.9128 133.214 20.9128 133.294C20.9128 133.375 20.9293 133.454 20.9611 133.528C20.993 133.602 21.0396 133.668 21.0981 133.723C21.1566 133.778 21.2257 133.821 21.3012 133.848C21.3767 133.876 21.457 133.887 21.5372 133.882H21.8302C21.9077 133.883 21.9846 133.868 22.0563 133.839C22.1281 133.81 22.1933 133.767 22.2481 133.712C22.3029 133.657 22.3462 133.592 22.3755 133.52C22.4047 133.448 22.4193 133.371 22.4184 133.293H22.4073ZM20.2098 133.293C20.2104 133.216 20.1955 133.139 20.1662 133.068C20.1368 132.996 20.0934 132.931 20.0387 132.876C19.9839 132.822 19.9188 132.779 19.8472 132.749C19.7755 132.72 19.6988 132.706 19.6215 132.707H19.3396C19.2595 132.702 19.1792 132.713 19.1037 132.741C19.0281 132.768 18.959 132.81 18.9005 132.865C18.842 132.92 18.7954 132.987 18.7636 133.061C18.7317 133.135 18.7153 133.214 18.7153 133.294C18.7153 133.375 18.7317 133.454 18.7636 133.528C18.7954 133.602 18.842 133.668 18.9005 133.723C18.959 133.778 19.0281 133.821 19.1037 133.848C19.1792 133.876 19.2595 133.887 19.3396 133.882H19.6326C19.7101 133.883 19.787 133.868 19.8588 133.839C19.9306 133.81 19.9958 133.767 20.0506 133.712C20.1054 133.657 20.1487 133.592 20.1779 133.52C20.2071 133.448 20.2218 133.371 20.2209 133.293H20.2098ZM26.9889 146.235C26.9892 146.003 26.9434 145.772 26.8541 145.557C26.7648 145.342 26.6338 145.147 26.4686 144.982C26.3035 144.818 26.1075 144.689 25.892 144.601C25.6765 144.513 25.4457 144.469 25.2131 144.471H24.2142C23.8224 143.669 23.1846 143.013 22.394 142.6C22.725 142.327 22.9916 141.984 23.1746 141.595C23.3576 141.207 23.4527 140.783 23.4528 140.353C23.4528 139.573 23.1432 138.825 22.592 138.273C22.0409 137.721 21.2933 137.411 20.5139 137.411C19.7344 137.411 18.9869 137.721 18.4357 138.273C17.8846 138.825 17.5749 139.573 17.5749 140.353C17.5751 140.783 17.6701 141.207 17.8531 141.595C18.0362 141.984 18.3027 142.327 18.6337 142.6C17.9501 142.953 17.3799 143.492 16.9889 144.156V143.882C16.986 143.129 16.776 142.392 16.3821 141.751C15.9882 141.109 15.4256 140.589 14.7558 140.247C15.0865 139.973 15.3527 139.63 15.5354 139.242C15.7181 138.853 15.8127 138.429 15.8124 138C15.8232 137.607 15.7552 137.216 15.6124 136.849C15.4696 136.483 15.255 136.149 14.9811 135.867C14.7072 135.586 14.3797 135.362 14.0179 135.209C13.6561 135.056 13.2673 134.977 12.8746 134.977C12.4818 134.977 12.0931 135.056 11.7313 135.209C11.3695 135.362 11.0419 135.586 10.7681 135.867C10.4942 136.149 10.2795 136.483 10.1367 136.849C9.99395 137.216 9.92594 137.607 9.93674 138C9.93779 138.43 10.0343 138.855 10.2193 139.244C10.4044 139.632 10.6733 139.975 11.0067 140.247C10.3348 140.587 9.76991 141.107 9.37398 141.749C8.97806 142.39 8.76647 143.128 8.76249 143.882V144.471C8.29505 144.471 7.84675 144.657 7.51622 144.988C7.18569 145.319 7 145.768 7 146.235C7 146.703 7.18569 147.152 7.51622 147.483C7.84675 147.814 8.29505 148 8.76249 148H25.2131C25.4457 148.002 25.6765 147.958 25.892 147.87C26.1075 147.782 26.3035 147.653 26.4686 147.489C26.6338 147.324 26.7648 147.129 26.8541 146.914C26.9434 146.699 26.9892 146.468 26.9889 146.235ZM14.6382 138C14.6382 138.349 14.5348 138.69 14.3411 138.98C14.1475 139.27 13.8722 139.497 13.5502 139.63C13.2281 139.764 12.8737 139.799 12.5318 139.731C12.19 139.662 11.8759 139.494 11.6294 139.248C11.3829 139.001 11.2151 138.686 11.1471 138.344C11.0791 138.002 11.114 137.647 11.2474 137.325C11.3808 137.002 11.6067 136.727 11.8965 136.533C12.1863 136.339 12.5271 136.236 12.8757 136.236C13.1072 136.235 13.3365 136.281 13.5505 136.369C13.7645 136.458 13.9589 136.588 14.1226 136.752C14.2863 136.916 14.4161 137.11 14.5046 137.324C14.5931 137.539 14.6385 137.768 14.6382 138ZM16.4584 145.647C16.354 146.342 16.4251 146.189 16.4007 146.824H8.76249C8.60648 146.824 8.45686 146.762 8.34654 146.652C8.23623 146.541 8.17425 146.392 8.17425 146.235C8.17425 146.079 8.23623 145.93 8.34654 145.819C8.45686 145.709 8.60648 145.647 8.76249 145.647H16.4584ZM22.2764 140.353C22.2764 140.702 22.173 141.043 21.9793 141.334C21.7857 141.624 21.5104 141.85 21.1883 141.983C20.8663 142.117 20.5119 142.152 20.17 142.084C19.8281 142.016 19.5141 141.848 19.2676 141.601C19.0211 141.354 18.8533 141.04 18.7852 140.698C18.7172 140.355 18.7521 140 18.8855 139.678C19.0189 139.356 19.2448 139.08 19.5347 138.886C19.8245 138.692 20.1653 138.589 20.5139 138.589C20.7454 138.589 20.9747 138.634 21.1887 138.723C21.4027 138.811 21.5971 138.941 21.7608 139.105C21.9245 139.269 22.0543 139.464 22.1428 139.678C22.2313 139.892 22.2766 140.122 22.2764 140.353ZM25.8013 146.235C25.8022 146.313 25.7876 146.39 25.7584 146.462C25.7291 146.534 25.6858 146.599 25.631 146.654C25.5762 146.709 25.511 146.752 25.4393 146.781C25.3675 146.811 25.2906 146.825 25.2131 146.824H24.6271C24.6027 146.2 24.6737 146.353 24.5694 145.647H25.2131C25.2906 145.646 25.3675 145.66 25.4393 145.69C25.511 145.719 25.5762 145.762 25.631 145.817C25.6858 145.872 25.7291 145.937 25.7584 146.009C25.7876 146.081 25.8022 146.158 25.8013 146.235Z" fill="white"/>
</svg>
